<!-- SVG Sprite com ícones para usar no site -->
<svg xmlns="http://www.w3.org/2000/svg" style="display:none">
  <symbol id="icon-star" viewBox="0 0 24 24"><path d="M12 17.27L18.18 21l-1.64-7.03L22 9.24l-7.19-.61L12 2 9.19 8.63 2 9.24l5.46 4.73L5.82 21z"/></symbol>
  <symbol id="icon-food" viewBox="0 0 24 24"><path d="M12 2C8.13 2 5 5.13 5 9c0 5.25 7 13 7 13s7-7.75 7-13c0-3.87-3.13-7-7-7zm0 9.5c-1.38 0-2.5-1.12-2.5-2.5S10.62 6.5 12 6.5s2.5 1.12 2.5 2.5S13.38 11.5 12 11.5z"/></symbol>
  <symbol id="icon-edit" viewBox="0 0 24 24"><path d="M3 17.25V21h3.75l11.06-11.06-3.75-3.75L3 17.25zm14.71-9.04a1.003 1.003 0 0 0 0-1.42l-2.5-2.5a1.003 1.003 0 0 0-1.42 0l-1.83 1.83 3.75 3.75 1.83-1.83z"/></symbol>
  <symbol id="icon-search" viewBox="0 0 24 24"><path d="M15.5 14h-.79l-.28-.27A6.471 6.471 0 0 0 16 9.5 6.5 6.5 0 1 0 9.5 16c1.61 0 3.09-.59 4.23-1.57l.27.28v.79l5 4.99L20.49 19l-4.99-5zm-6 0C7.01 14 5 11.99 5 9.5S7.01 5 9.5 5 14 7.01 14 9.5 11.99 14 9.5 14z"/></symbol>
  <symbol id="icon-like" viewBox="0 0 24 24"><path d="M12 21.35l-1.45-1.32C5.4 15.36 2 12.28 2 8.5 2 5.42 4.42 3 7.5 3c1.74 0 3.41 0.81 4.5 2.09C13.09 3.81 14.76 3 16.5 3 19.58 3 22 5.42 22 8.5c0 3.78-3.4 6.86-8.55 11.54L12 21.35z"/></symbol>
</svg>
